<svg baseProfile="full" height="1552" version="1.1" width="520" xmlns="http://www.w3.org/2000/svg" xmlns:ev="http://www.w3.org/2001/xml-events" xmlns:xlink="http://www.w3.org/1999/xlink"><defs><filter height="140%" id="cardShadow" width="140%" x="-20%" y="-20%"><feGaussianBlur in="SourceAlpha" result="blur" stdDeviation="2" /><feOffset dx="0" dy="1" in="blur" result="offset" /><feMerge><feMergeNode in="offset" /><feMergeNode in="SourceGraphic" /></feMerge></filter></defs><rect fill="#ffffff" height="1552" width="520" x="0" y="0" /><g><text style="font:600 14px 'Segoe UI', Ubuntu, Sans-Serif; fill:#111827;" x="16" y="40">证书列表 · 2025-09-30</text><line stroke="#e5e7eb" x1="16" x2="504" y1="56" y2="56" /></g><g filter="url(#cardShadow)"><rect fill="#ffffff" height="84" rx="10" ry="10" stroke="#e5e7eb" width="488" x="16" y="64" /><text style="font:600 13px 'Segoe UI', Ubuntu, Sans-Serif; fill:#111827;" x="30" y="88">2020年全国职业院校技能大赛改革试点赛中职组网络搭建与应用三等奖</text><text style="font:500 11px 'Segoe UI', Ubuntu, Sans-Serif; fill:#4b5563;" x="30" y="110">签发者：全国职业院校技能大赛组织委员会 · 编号：20200143</text><text style="font:500 11px 'Segoe UI', Ubuntu, Sans-Serif; fill:#4b5563;" x="30" y="132">获取：2020-01-01</text><rect fill="#2563eb" height="52" rx="1" ry="1" width="2" x="498" y="80" /></g><g filter="url(#cardShadow)"><rect fill="#ffffff" height="84" rx="10" ry="10" stroke="#e5e7eb" width="488" x="16" y="156" /><text style="font:600 13px 'Segoe UI', Ubuntu, Sans-Serif; fill:#111827;" x="30" y="180">2021年河南省职业院校能大赛中职组网络搭建与应用一等奖（第一名）</text><text style="font:500 11px 'Segoe UI', Ubuntu, Sans-Serif; fill:#4b5563;" x="30" y="202">签发者：河南省教育厅 · 编号：豫教[2021]38310</text><text style="font:500 11px 'Segoe UI', Ubuntu, Sans-Serif; fill:#4b5563;" x="30" y="224">获取：2021-01-01</text><rect fill="#2563eb" height="52" rx="1" ry="1" width="2" x="498" y="172" /></g><g filter="url(#cardShadow)"><rect fill="#ffffff" height="84" rx="10" ry="10" stroke="#e5e7eb" width="488" x="16" y="248" /><text style="font:600 13px 'Segoe UI', Ubuntu, Sans-Serif; fill:#111827;" x="30" y="272">2021年度中等职业教育国家奖学金</text><text style="font:500 11px 'Segoe UI', Ubuntu, Sans-Serif; fill:#4b5563;" x="30" y="294">签发者：教育部&amp;人社部 · 编号：ZZJ202108933</text><text style="font:500 11px 'Segoe UI', Ubuntu, Sans-Serif; fill:#4b5563;" x="30" y="316">获取：2021-01-01</text><rect fill="#2563eb" height="52" rx="1" ry="1" width="2" x="498" y="264" /></g><g filter="url(#cardShadow)"><rect fill="#ffffff" height="84" rx="10" ry="10" stroke="#e5e7eb" width="488" x="16" y="340" /><text style="font:600 13px 'Segoe UI', Ubuntu, Sans-Serif; fill:#111827;" x="30" y="364">2022年全国职业院校技能大赛中职组网络搭建与应用二等奖</text><text style="font:500 11px 'Segoe UI', Ubuntu, Sans-Serif; fill:#4b5563;" x="30" y="386">签发者：全国职业院校技能大赛组织委员会 · 编号：202204238</text><text style="font:500 11px 'Segoe UI', Ubuntu, Sans-Serif; fill:#4b5563;" x="30" y="408">获取：2022-01-01</text><rect fill="#2563eb" height="52" rx="1" ry="1" width="2" x="498" y="356" /></g><g filter="url(#cardShadow)"><rect fill="#ffffff" height="84" rx="10" ry="10" stroke="#e5e7eb" width="488" x="16" y="432" /><text style="font:600 13px 'Segoe UI', Ubuntu, Sans-Serif; fill:#111827;" x="30" y="456">2022年河南省职业院校能大赛高职组云计算一等奖（第一名）</text><text style="font:500 11px 'Segoe UI', Ubuntu, Sans-Serif; fill:#4b5563;" x="30" y="478">签发者：河南省教育厅 · 编号：豫教[2023]38268</text><text style="font:500 11px 'Segoe UI', Ubuntu, Sans-Serif; fill:#4b5563;" x="30" y="500">获取：2022-01-01</text><rect fill="#2563eb" height="52" rx="1" ry="1" width="2" x="498" y="448" /></g><g filter="url(#cardShadow)"><rect fill="#ffffff" height="84" rx="10" ry="10" stroke="#e5e7eb" width="488" x="16" y="524" /><text style="font:600 13px 'Segoe UI', Ubuntu, Sans-Serif; fill:#111827;" x="30" y="548">2023年全国职业院校技能大赛高职组云计算二等奖</text><text style="font:500 11px 'Segoe UI', Ubuntu, Sans-Serif; fill:#4b5563;" x="30" y="570">签发者：全国职业院校技能大赛组织委员会 · 编号：202312950</text><text style="font:500 11px 'Segoe UI', Ubuntu, Sans-Serif; fill:#4b5563;" x="30" y="592">获取：2023-01-01</text><rect fill="#2563eb" height="52" rx="1" ry="1" width="2" x="498" y="540" /></g><g filter="url(#cardShadow)"><rect fill="#ffffff" height="84" rx="10" ry="10" stroke="#e5e7eb" width="488" x="16" y="616" /><text style="font:600 13px 'Segoe UI', Ubuntu, Sans-Serif; fill:#111827;" x="30" y="640">Certified Kubernetes Administrator</text><text style="font:500 11px 'Segoe UI', Ubuntu, Sans-Serif; fill:#4b5563;" x="30" y="662">签发者：云原生计算基金会 · 编号：LF-le3qp9mjqc</text><text style="font:500 11px 'Segoe UI', Ubuntu, Sans-Serif; fill:#4b5563;" x="30" y="684">获取：2023-06-24</text><rect fill="#2563eb" height="52" rx="1" ry="1" width="2" x="498" y="632" /></g><g filter="url(#cardShadow)"><rect fill="#ffffff" height="84" rx="10" ry="10" stroke="#e5e7eb" width="488" x="16" y="708" /><text style="font:600 13px 'Segoe UI', Ubuntu, Sans-Serif; fill:#111827;" x="30" y="732">Red Hat Certified Engineer</text><text style="font:500 11px 'Segoe UI', Ubuntu, Sans-Serif; fill:#4b5563;" x="30" y="754">签发者：Red Hat · 编号：230-003-881</text><text style="font:500 11px 'Segoe UI', Ubuntu, Sans-Serif; fill:#4b5563;" x="30" y="776">获取：2023-01-06</text><rect fill="#2563eb" height="52" rx="1" ry="1" width="2" x="498" y="724" /></g><g filter="url(#cardShadow)"><rect fill="#ffffff" height="84" rx="10" ry="10" stroke="#e5e7eb" width="488" x="16" y="800" /><text style="font:600 13px 'Segoe UI', Ubuntu, Sans-Serif; fill:#111827;" x="30" y="824">Red Hat Certified System Administrator</text><text style="font:500 11px 'Segoe UI', Ubuntu, Sans-Serif; fill:#4b5563;" x="30" y="846">签发者：Red Hat · 编号：230-003-881</text><text style="font:500 11px 'Segoe UI', Ubuntu, Sans-Serif; fill:#4b5563;" x="30" y="868">获取：2023-01-06</text><rect fill="#2563eb" height="52" rx="1" ry="1" width="2" x="498" y="816" /></g><g filter="url(#cardShadow)"><rect fill="#ffffff" height="84" rx="10" ry="10" stroke="#e5e7eb" width="488" x="16" y="892" /><text style="font:600 13px 'Segoe UI', Ubuntu, Sans-Serif; fill:#111827;" x="30" y="916">华为认证ICT工程师(openEuler)</text><text style="font:500 11px 'Segoe UI', Ubuntu, Sans-Serif; fill:#4b5563;" x="30" y="938">签发者：华为 · 编号：010103701193809258771409</text><text style="font:500 11px 'Segoe UI', Ubuntu, Sans-Serif; fill:#4b5563;" x="30" y="960">获取：2023-11-17</text><rect fill="#2563eb" height="52" rx="1" ry="1" width="2" x="498" y="908" /></g><g filter="url(#cardShadow)"><rect fill="#ffffff" height="84" rx="10" ry="10" stroke="#e5e7eb" width="488" x="16" y="984" /><text style="font:600 13px 'Segoe UI', Ubuntu, Sans-Serif; fill:#111827;" x="30" y="1008">华为认证ICT工程师(openGauss)</text><text style="font:500 11px 'Segoe UI', Ubuntu, Sans-Serif; fill:#4b5563;" x="30" y="1030">签发者：华为 · 编号：010101401193809258931409</text><text style="font:500 11px 'Segoe UI', Ubuntu, Sans-Serif; fill:#4b5563;" x="30" y="1052">获取：2023-11-21</text><rect fill="#2563eb" height="52" rx="1" ry="1" width="2" x="498" y="1000" /></g><g filter="url(#cardShadow)"><rect fill="#ffffff" height="84" rx="10" ry="10" stroke="#e5e7eb" width="488" x="16" y="1076" /><text style="font:600 13px 'Segoe UI', Ubuntu, Sans-Serif; fill:#111827;" x="30" y="1100">Certified Kubernetes Security Specialist</text><text style="font:500 11px 'Segoe UI', Ubuntu, Sans-Serif; fill:#4b5563;" x="30" y="1122">签发者：云原生计算基金会 · 编号：LF-m8cypt4f12</text><text style="font:500 11px 'Segoe UI', Ubuntu, Sans-Serif; fill:#4b5563;" x="30" y="1144">获取：2023-12-03</text><rect fill="#2563eb" height="52" rx="1" ry="1" width="2" x="498" y="1092" /></g><g filter="url(#cardShadow)"><rect fill="#ffffff" height="84" rx="10" ry="10" stroke="#e5e7eb" width="488" x="16" y="1168" /><text style="font:600 13px 'Segoe UI', Ubuntu, Sans-Serif; fill:#111827;" x="30" y="1192">2023年河南省职业院校技能竞赛-云计算赛项邀请赛一等奖（第一名）</text><text style="font:500 11px 'Segoe UI', Ubuntu, Sans-Serif; fill:#4b5563;" x="30" y="1214">签发者：河南省高等学校计算机教育研究会 · 编号：YJS2023001</text><text style="font:500 11px 'Segoe UI', Ubuntu, Sans-Serif; fill:#4b5563;" x="30" y="1236">获取：2023-12-17</text><rect fill="#2563eb" height="52" rx="1" ry="1" width="2" x="498" y="1184" /></g><g filter="url(#cardShadow)"><rect fill="#ffffff" height="84" rx="10" ry="10" stroke="#e5e7eb" width="488" x="16" y="1260" /><text style="font:600 13px 'Segoe UI', Ubuntu, Sans-Serif; fill:#111827;" x="30" y="1284">2023-2024华为ICT大赛计算赛道（高职组）河南省赛一等奖（第一名）</text><text style="font:500 11px 'Segoe UI', Ubuntu, Sans-Serif; fill:#4b5563;" x="30" y="1306">签发者：华为</text><text style="font:500 11px 'Segoe UI', Ubuntu, Sans-Serif; fill:#4b5563;" x="30" y="1328">获取：2023-12-25</text><rect fill="#2563eb" height="52" rx="1" ry="1" width="2" x="498" y="1276" /></g><g filter="url(#cardShadow)"><rect fill="#ffffff" height="84" rx="10" ry="10" stroke="#e5e7eb" width="488" x="16" y="1352" /><text style="font:600 13px 'Segoe UI', Ubuntu, Sans-Serif; fill:#111827;" x="30" y="1376">2023-2024华为ICT大赛计算赛道（高职组）中国区总决赛特等奖</text><text style="font:500 11px 'Segoe UI', Ubuntu, Sans-Serif; fill:#4b5563;" x="30" y="1398">签发者：华为</text><text style="font:500 11px 'Segoe UI', Ubuntu, Sans-Serif; fill:#4b5563;" x="30" y="1420">获取：2024-04-16</text><rect fill="#2563eb" height="52" rx="1" ry="1" width="2" x="498" y="1368" /></g><g filter="url(#cardShadow)"><rect fill="#ffffff" height="84" rx="10" ry="10" stroke="#e5e7eb" width="488" x="16" y="1444" /><text style="font:600 13px 'Segoe UI', Ubuntu, Sans-Serif; fill:#111827;" x="30" y="1468">2023-2024华为ICT大赛计算赛道全球总决赛一等奖</text><text style="font:500 11px 'Segoe UI', Ubuntu, Sans-Serif; fill:#4b5563;" x="30" y="1490">签发者：华为</text><text style="font:500 11px 'Segoe UI', Ubuntu, Sans-Serif; fill:#4b5563;" x="30" y="1512">获取：2024-05-26</text><rect fill="#2563eb" height="52" rx="1" ry="1" width="2" x="498" y="1460" /></g></svg>